<svg width="16" height="16" viewBox="0 0 16 16" fill="none" xmlns="http://www.w3.org/2000/svg">
<path d="M2 8C2 4.68644 4.68644 2 8 2C11.3136 2 14 4.68644 14 8C14 11.3136 11.3136 14 8 14C4.68644 14 2 11.3136 2 8ZM11.7922 5.06L5.05448 11.7861C5.85838 12.4157 6.88448 12.7958 7.99916 12.7958C10.65 12.7958 12.7992 10.6466 12.7992 7.99581C12.7992 6.883 12.4199 5.85789 11.7839 5.04357L11.7918 5.05435L11.7922 5.06ZM10.9461 4.20781C10.1399 3.57218 9.10954 3.18921 7.98922 3.18921C5.33842 3.18921 3.18922 5.33841 3.18922 7.98921C3.18922 9.10952 3.57266 10.1399 4.21579 10.9565L4.20782 10.9461L10.9461 4.20781Z" fill="#00D1FF"/>
</svg>
