<svg width="294" height="64" viewBox="0 0 294 64" fill="none" xmlns="http://www.w3.org/2000/svg">
<g clip-path="url(#clip0)">
<path fill-rule="evenodd" clip-rule="evenodd" d="M5.6713 3.87193C2.53913 3.87193 0 6.41105 0 9.54322V58.3288C0 61.4609 2.53913 64.0001 5.6713 64.0001C8.80347 64.0001 11.3426 61.4609 11.3426 58.3288V21.8621L25.951 36.5282C27.8516 38.4362 30.7654 38.707 32.9536 37.3404C33.3301 37.1096 33.6856 36.8307 34.0113 36.5036L48.5463 21.9113V58.3288C48.5463 61.4609 51.0854 64.0001 54.2176 64.0001C57.3498 64.0001 59.8889 61.4609 59.8889 58.3288V9.54323C59.8889 6.41106 57.3498 3.87193 54.2176 3.87193C52.9555 3.87193 51.7897 4.28419 50.8475 4.98138C49.7268 5.1715 48.6519 5.70075 47.787 6.56912L29.9689 24.4574L12.1623 6.58054C11.2825 5.69725 10.1855 5.16484 9.04395 4.9833C8.10131 4.28495 6.93453 3.87193 5.6713 3.87193Z" fill="#00D1FF"/>
</g>
<g clip-path="url(#clip1)">
<path d="M119.919 8.92177V16.4406C119.919 16.9101 120.186 17.3795 120.522 17.7152C125.632 21.6753 128.856 28.0533 128.386 35.1028C127.782 45.4409 119.178 53.8332 108.825 54.2374C97.1986 54.7095 87.5888 45.3784 87.5888 33.8285C87.5888 27.2484 90.6818 21.4763 95.5209 17.7152C95.9252 17.3795 96.1248 16.9756 96.1248 16.4406V8.92177C96.1248 7.71273 94.8487 6.9076 93.7722 7.51078C83.6213 13.0156 76.9683 24.227 78.1789 36.8498C79.5232 50.7469 90.6823 62.0269 104.595 63.5717C122.675 65.5859 138.001 51.4867 138.001 33.8285C138.001 22.4834 131.615 12.6113 122.274 7.51078C121.197 6.97314 119.918 7.71272 119.918 8.92177H119.919Z" fill="#FF5656"/>
<path d="M108.022 28.0564C110.642 28.0564 112.795 25.9085 112.795 23.2885V4.75947C112.795 2.14212 110.645 -0.00846863 108.022 -0.00846863C105.402 -0.00846863 103.249 2.13944 103.249 4.75947V23.3563C103.249 25.9736 105.402 28.056 108.022 28.056V28.0564Z" fill="#FF5656"/>
</g>
<g clip-path="url(#clip2)">
<path d="M215.963 33.936C215.963 50.5399 202.556 64 186.019 64C169.481 64 156.074 50.5399 156.074 33.936C156.074 17.332 169.481 3.8719 186.019 3.8719C202.556 3.8719 215.963 17.332 215.963 33.936ZM165.527 33.936C165.527 45.2981 174.702 54.5089 186.019 54.5089C197.335 54.5089 206.51 45.2981 206.51 33.936C206.51 22.5739 197.335 13.363 186.019 13.363C174.702 13.363 165.527 22.5739 165.527 33.936Z" fill="#00D1FF"/>
<path d="M194.649 33.3495C194.649 33.0702 194.429 32.8508 194.149 32.8508C193.869 32.8508 193.649 33.0702 193.649 33.3495C193.649 37.4994 190.268 40.8813 186.096 40.8813C181.924 40.8813 178.543 37.5097 178.543 33.3495C178.543 33.0702 178.323 32.8508 178.042 32.8508C177.762 32.8508 177.542 33.0702 177.542 33.3495C177.542 37.8787 181.114 41.5893 185.595 41.8488V47.116H183.024C182.744 47.116 182.524 47.3355 182.524 47.6148C182.524 47.8941 182.744 48.1136 183.024 48.1136H189.177C189.457 48.1136 189.677 47.8941 189.677 47.6148C189.677 47.3355 189.457 47.116 189.177 47.116H186.596V41.8488C191.078 41.5895 194.649 37.8784 194.649 33.3495H194.649Z" fill="#00D1FF"/>
<path d="M186.096 37.6989C188.497 37.6989 190.448 35.7437 190.448 33.3495V31.6137H186.686C186.406 31.6137 186.186 31.3943 186.186 31.115C186.186 30.8356 186.406 30.6162 186.686 30.6162H190.448V28.8106H186.686C186.406 28.8106 186.186 28.5911 186.186 28.3118C186.186 28.0325 186.406 27.813 186.686 27.813H190.448V26.2069H186.686C186.406 26.2069 186.186 25.9875 186.186 25.7082C186.186 25.4288 186.406 25.2094 186.686 25.2094H190.448V24.1021C190.448 21.7079 188.497 19.7625 186.096 19.7625C183.695 19.7625 181.744 21.7078 181.744 24.1021V33.3496C181.744 35.7438 183.695 37.699 186.096 37.699V37.6989Z" fill="#00D1FF"/>
</g>
<g clip-path="url(#clip3)">
<path fill-rule="evenodd" clip-rule="evenodd" d="M264.056 3.8719C260.923 3.8719 258.384 6.41103 258.384 9.5432V28.2402L239.805 28.2393C236.66 28.2392 234.111 30.7883 234.111 33.933C234.111 37.0777 236.66 39.6271 239.805 39.6272L258.384 39.6281V58.3287C258.384 61.4609 260.923 64 264.056 64C267.188 64 269.727 61.4609 269.727 58.3287V39.6287L288.306 39.6296C291.451 39.6298 294 37.0806 294 33.9359C294 30.7913 291.451 28.2419 288.306 28.2417L269.727 28.2408V9.5432C269.727 6.41103 267.188 3.8719 264.056 3.8719Z" fill="#00D1FF"/>
</g>
<defs>
<clipPath id="clip0">
<rect width="59.8889" height="60.1283" fill="white" transform="translate(0 3.87175)"/>
</clipPath>
<clipPath id="clip1">
<rect width="59.8889" height="64" fill="white" transform="translate(78.037)"/>
</clipPath>
<clipPath id="clip2">
<rect width="59.8889" height="60.1281" fill="white" transform="translate(156.074 3.8719)"/>
</clipPath>
<clipPath id="clip3">
<rect width="59.8889" height="60.1281" fill="white" transform="translate(234.111 3.8719)"/>
</clipPath>
</defs>
</svg>
