<svg width="16" height="16" viewBox="0 0 16 16" fill="none" xmlns="http://www.w3.org/2000/svg">
<path d="M13.633 12.7L10.1668 9.23313C10.6999 8.53313 10.9999 7.63313 10.9999 6.66625C10.9999 4.26625 9.06677 2.33313 6.66677 2.33313C4.26677 2.33313 2.33301 4.26689 2.33301 6.66689C2.33301 9.06689 4.26613 11 6.66613 11C7.63301 11 8.49925 10.7 9.23301 10.1669L12.6999 13.6338C12.833 13.7669 12.9999 13.8338 13.1668 13.8338C13.3336 13.8338 13.4999 13.7669 13.6336 13.6338C13.8999 13.3669 13.8999 12.9669 13.633 12.7L13.633 12.7ZM6.66677 9.66689C4.99989 9.66689 3.66677 8.33377 3.66677 6.66689C3.66677 5.00001 4.99989 3.66689 6.66677 3.66689C8.33365 3.66689 9.66677 5.00001 9.66677 6.66689C9.66677 8.33313 8.33302 9.66689 6.66677 9.66689Z" fill="#00D1FF"/>
</svg>
